<svg id="Camada_1" data-name="Camada 1" xmlns="http://www.w3.org/2000/svg" viewBox="0 0 1000 1000"><defs><style>.cls-1{fill:#b6b747;}.cls-2{fill:#5380a9;}.cls-3{fill:#3e5f78;}.cls-4{fill:#293f45;}.cls-5{fill:#cacd4f;}</style></defs><title>logo</title><path class="cls-1" d="M194.65,497.39s27.29-192.19,470.8-242.22c0,0-366.18,60.27-434.41,250.18C231,505.35,214,525.82,194.65,497.39Z"/><rect class="cls-2" x="308.49" y="350.81" width="126.11" height="106.78"/><rect class="cls-2" x="308.49" y="471.35" width="126.11" height="84.06"/><rect class="cls-2" x="325.43" y="244.93" width="92.11" height="92.11" rx="21.94"/><rect class="cls-3" x="448.36" y="350.81" width="126.11" height="106.78"/><rect class="cls-3" x="448.36" y="471.35" width="126.11" height="84.06"/><rect class="cls-3" x="465.36" y="244.93" width="92.11" height="92.11" rx="21.94"/><rect class="cls-4" x="588.24" y="350.81" width="126.11" height="106.78"/><rect class="cls-4" x="588.24" y="471.35" width="126.11" height="84.06"/><rect class="cls-4" x="605.24" y="244.93" width="92.11" height="92.11" rx="21.94"/><path class="cls-5" d="M620,404.91,592.67,381l189.91-55.72-106.89,141L662,442.38S560.83,515.26,434.6,545.92s-231,33-239.95-52.37C194.65,493.55,325.43,572,620,404.91Z"/><path class="cls-4" d="M195.33,694.49a19,19,0,0,0,5.28,6.34,21.75,21.75,0,0,0,7.43,3.64,32,32,0,0,0,8.73,1.17,30,30,0,0,0,6.78-.82,22.13,22.13,0,0,0,6.47-2.58,15.31,15.31,0,0,0,4.85-4.7,13.18,13.18,0,0,0,1.94-7.4q0-7.51-9.16-11.27t-25.53-7.52q-6.69-1.64-13-3.87a42.63,42.63,0,0,1-11.31-5.87,26.4,26.4,0,0,1-11-22.66q0-11.75,4.2-19.26a32.42,32.42,0,0,1,11.1-11.86,46.3,46.3,0,0,1,15.51-6.11A88.25,88.25,0,0,1,215.26,600a81.44,81.44,0,0,1,17.56,1.88A44.46,44.46,0,0,1,248,608.18,36.67,36.67,0,0,1,259.11,620q4.41,7.41,5.28,18.67H235.3q-.65-9.63-6.68-13a28.5,28.5,0,0,0-14.22-3.41,47.51,47.51,0,0,0-5.61.36,17.38,17.38,0,0,0-5.49,1.52,11.52,11.52,0,0,0-4.2,3.41,10.68,10.68,0,0,0,1.29,13.27,22.78,22.78,0,0,0,7.86,4.58,93,93,0,0,0,11.1,3.17q6.26,1.41,12.71,3a123,123,0,0,1,13,4,41.5,41.5,0,0,1,11.31,6.23,29.41,29.41,0,0,1,8,9.62q3,5.76,3,14.21,0,12-4.42,20.08a37.22,37.22,0,0,1-11.52,13,44.87,44.87,0,0,1-16.27,6.93,87.36,87.36,0,0,1-18.64,2,85.49,85.49,0,0,1-19-2.11,47.83,47.83,0,0,1-16.48-7.05,38.7,38.7,0,0,1-11.85-13q-4.65-8.1-5.07-20.32h29.09A19.53,19.53,0,0,0,195.33,694.49Z"/><path class="cls-4" d="M351.43,625.09a20.22,20.22,0,0,0-12.28,3.64,28.06,28.06,0,0,0-8.08,9.39,43.26,43.26,0,0,0-4.42,12.69,75,75,0,0,0-1.29,13.74,71.79,71.79,0,0,0,1.29,13.38,44.26,44.26,0,0,0,4.2,12.33,25.47,25.47,0,0,0,7.87,9,20.28,20.28,0,0,0,12.07,3.53q11,0,16.91-6.7t7.43-18h29.52q-3,24.2-17.23,36.87T351,727.72a56.63,56.63,0,0,1-22.95-4.58,50.66,50.66,0,0,1-17.77-12.8,58.86,58.86,0,0,1-11.42-19.61,73.43,73.43,0,0,1-4.1-25,87.76,87.76,0,0,1,3.77-26.19,60.54,60.54,0,0,1,11.1-20.9,51,51,0,0,1,17.89-13.74A56.47,56.47,0,0,1,351.65,600a64.49,64.49,0,0,1,19.07,2.82,49.36,49.36,0,0,1,16.37,8.57,45,45,0,0,1,11.75,14.33A49,49,0,0,1,404,646H374.06Q371,625.09,351.43,625.09Z"/><path class="cls-4" d="M435.46,637.66a57.77,57.77,0,0,1,11.64-20.2,51.94,51.94,0,0,1,18.1-12.92A59,59,0,0,1,488.9,600a59.82,59.82,0,0,1,23.81,4.58,51.73,51.73,0,0,1,18.21,12.92,57.91,57.91,0,0,1,11.63,20.2,80.53,80.53,0,0,1,4.1,26.42,79.5,79.5,0,0,1-4.1,26.3,58.09,58.09,0,0,1-11.63,20.08,50.56,50.56,0,0,1-18.21,12.8,61.23,61.23,0,0,1-23.81,4.46,60.42,60.42,0,0,1-23.7-4.46,50.75,50.75,0,0,1-18.1-12.8,58,58,0,0,1-11.64-20.08,79.5,79.5,0,0,1-4.09-26.3A80.53,80.53,0,0,1,435.46,637.66Zm27.8,40.63a39.76,39.76,0,0,0,4.42,12.44,24.54,24.54,0,0,0,8.29,8.81q5.17,3.29,12.93,3.29a23.1,23.1,0,0,0,21.44-12.1,40,40,0,0,0,4.42-12.44,77.52,77.52,0,0,0,1.29-14.21,79.4,79.4,0,0,0-1.29-14.33,38.66,38.66,0,0,0-4.42-12.45,25.54,25.54,0,0,0-8.4-8.8,23.61,23.61,0,0,0-13-3.41q-7.75,0-12.93,3.41a25.88,25.88,0,0,0-8.29,8.8,38.42,38.42,0,0,0-4.42,12.45A79.4,79.4,0,0,0,462,664.08,77.52,77.52,0,0,0,463.26,678.29Z"/><path class="cls-4" d="M608.49,603.25v15.5h.43q5.6-9.86,14.22-14.32a40.55,40.55,0,0,1,19-4.47q13.14,0,22.62,5.41a47.85,47.85,0,0,1,15.73,14.32,62.83,62.83,0,0,1,9.27,20.78,100.24,100.24,0,0,1,3,24.78,90.45,90.45,0,0,1-3,23.48,61.85,61.85,0,0,1-9.16,20,46.41,46.41,0,0,1-15.3,13.85q-9.15,5.18-21.44,5.17a40.4,40.4,0,0,1-19.06-4.58,37.06,37.06,0,0,1-14.33-13.51H610v45.44H579.4V603.25Zm39.75,96.29a25.58,25.58,0,0,0,8.19-8.58,37.46,37.46,0,0,0,4.42-12.32,79.4,79.4,0,0,0,1.29-14.33,73.5,73.5,0,0,0-1.4-14.32,40.44,40.44,0,0,0-4.63-12.57,27.14,27.14,0,0,0-8.3-8.92,21.72,21.72,0,0,0-12.39-3.41,22.06,22.06,0,0,0-12.6,3.41,26.28,26.28,0,0,0-8.19,8.8,38.42,38.42,0,0,0-4.42,12.45,80.72,80.72,0,0,0-1.29,14.56,72.83,72.83,0,0,0,1.4,14.33A38.93,38.93,0,0,0,614.84,691a25.24,25.24,0,0,0,8.3,8.58,25.58,25.58,0,0,0,25.1,0Z"/><path class="cls-4" d="M724.62,637.66a57.77,57.77,0,0,1,11.64-20.2,51.94,51.94,0,0,1,18.1-12.92,59,59,0,0,1,23.7-4.58,59.82,59.82,0,0,1,23.81,4.58,51.73,51.73,0,0,1,18.21,12.92,57.91,57.91,0,0,1,11.63,20.2,80.53,80.53,0,0,1,4.1,26.42,79.5,79.5,0,0,1-4.1,26.3,58.09,58.09,0,0,1-11.63,20.08,50.56,50.56,0,0,1-18.21,12.8,61.23,61.23,0,0,1-23.81,4.46,60.42,60.42,0,0,1-23.7-4.46,50.75,50.75,0,0,1-18.1-12.8,58,58,0,0,1-11.64-20.08,79.5,79.5,0,0,1-4.09-26.3A80.53,80.53,0,0,1,724.62,637.66Zm27.8,40.63a39.76,39.76,0,0,0,4.42,12.44,24.54,24.54,0,0,0,8.29,8.81q5.18,3.29,12.93,3.29a23.1,23.1,0,0,0,21.44-12.1,40,40,0,0,0,4.42-12.44,77.52,77.52,0,0,0,1.29-14.21,79.4,79.4,0,0,0-1.29-14.33,38.66,38.66,0,0,0-4.42-12.45,25.54,25.54,0,0,0-8.4-8.8,23.61,23.61,0,0,0-13-3.41q-7.75,0-12.93,3.41a25.88,25.88,0,0,0-8.29,8.8,38.42,38.42,0,0,0-4.42,12.45,79.4,79.4,0,0,0-1.29,14.33A77.52,77.52,0,0,0,752.42,678.29Z"/></svg>