<?xml version="1.0" encoding="utf-8"?>
<!-- Generator: Adobe Illustrator 23.0.3, SVG Export Plug-In . SVG Version: 6.00 Build 0)  -->
<svg version="1.1" id="Camada_1" xmlns="http://www.w3.org/2000/svg" xmlns:xlink="http://www.w3.org/1999/xlink" x="0px" y="0px"
	 viewBox="0 0 671.7 510.2" style="enable-background:new 0 0 671.7 510.2;" xml:space="preserve">
<style type="text/css">
	.st0{fill:#B6B747;}
	.st1{fill:#5380A9;}
	.st2{fill:#3E5F78;}
	.st3{fill:#293F45;}
	.st4{fill:#CACD4F;}
</style>
<g>
	<title>logo.white</title>
	<path class="st0" d="M30.5,252.5c0,0,27.3-192.2,470.8-242.2c0,0-366.2,60.3-434.4,250.2C66.9,260.4,49.9,280.9,30.5,252.5z"/>
	<rect x="144.4" y="105.9" class="st1" width="126.1" height="106.8"/>
	<rect x="144.4" y="226.4" class="st1" width="126.1" height="84.1"/>
	<path class="st1" d="M183.2,0h48.2c12.1,0,21.9,9.8,21.9,21.9v48.2c0,12.1-9.8,21.9-21.9,21.9h-48.2c-12.1,0-21.9-9.8-21.9-21.9
		V21.9C161.3,9.8,171.1,0,183.2,0z"/>
	<rect x="284.2" y="105.9" class="st2" width="126.1" height="106.8"/>
	<rect x="284.2" y="226.4" class="st2" width="126.1" height="84.1"/>
	<path class="st2" d="M323.2,0h48.2c12.1,0,21.9,9.8,21.9,21.9v48.2c0,12.1-9.8,21.9-21.9,21.9h-48.2c-12.1,0-21.9-9.8-21.9-21.9
		V21.9C301.2,9.8,311.1,0,323.2,0z"/>
	<rect x="424.1" y="105.9" class="st3" width="126.1" height="106.8"/>
	<rect x="424.1" y="226.4" class="st3" width="126.1" height="84.1"/>
	<path class="st3" d="M463.1,0h48.2c12.1,0,21.9,9.8,21.9,21.9v48.2c0,12.1-9.8,21.9-21.9,21.9h-48.2c-12.1,0-21.9-9.8-21.9-21.9
		V21.9C441.1,9.8,450.9,0,463.1,0z"/>
	<path class="st4" d="M455.9,160l-27.3-23.9l189.9-55.7l-106.9,141l-13.7-23.9c0,0-101.2,72.9-227.4,103.5s-231,33-239.9-52.4
		C30.5,248.6,161.3,327.1,455.9,160z"/>
	<path class="st3" d="M31.2,449.6c1.3,2.5,3.1,4.6,5.3,6.3c2.2,1.7,4.7,2.9,7.4,3.6c2.8,0.8,5.8,1.2,8.7,1.2c2.3,0,4.6-0.3,6.8-0.8
		c2.3-0.5,4.5-1.4,6.5-2.6c1.9-1.2,3.6-2.8,4.9-4.7c1.4-2.2,2-4.8,1.9-7.4c0-5-3.1-8.8-9.2-11.3s-14.6-5-25.5-7.5
		c-4.5-1.1-8.8-2.4-13-3.9c-4-1.4-7.9-3.4-11.3-5.9c-7.3-5.2-11.4-13.7-11-22.7c0-7.8,1.4-14.3,4.2-19.3c2.6-4.8,6.5-8.9,11.1-11.9
		c4.8-3,10-5,15.5-6.1c5.8-1.2,11.7-1.7,17.6-1.7s11.8,0.6,17.6,1.9c5.4,1.1,10.6,3.3,15.2,6.3c4.5,3.1,8.3,7.1,11.1,11.8
		c2.9,4.9,4.7,11.2,5.3,18.7H71.2c-0.4-6.4-2.7-10.8-6.7-13c-4.4-2.4-9.3-3.5-14.2-3.4c-1.9,0-3.7,0.1-5.6,0.4
		c-1.9,0.2-3.8,0.7-5.5,1.5s-3.1,2-4.2,3.4c-2.7,4.2-2.2,9.7,1.3,13.3c2.3,2,5,3.6,7.9,4.6c3.6,1.3,7.3,2.3,11.1,3.2
		c4.2,0.9,8.4,1.9,12.7,3c4.4,1.1,8.7,2.4,13,4c4.1,1.5,7.9,3.6,11.3,6.2c3.3,2.6,6.1,5.9,8,9.6c2,3.8,3,8.6,3,14.2
		c0,8-1.5,14.7-4.4,20.1c-2.8,5.2-6.7,9.6-11.5,13c-4.9,3.4-10.4,5.7-16.3,6.9c-6.1,1.3-12.4,2-18.6,2c-6.4,0-12.8-0.7-19-2.1
		c-5.9-1.3-11.5-3.7-16.5-7c-4.9-3.4-9-7.8-11.9-13C2,455.2,0.3,448.4,0,440.2h29.1C29,443.5,29.7,446.7,31.2,449.6z"/>
	<path class="st3" d="M187.3,380.2c-4.4-0.1-8.7,1.1-12.3,3.6c-3.4,2.5-6.1,5.7-8.1,9.4c-2.1,4-3.6,8.3-4.4,12.7
		c-0.9,4.5-1.3,9.1-1.3,13.7c0,4.5,0.4,9,1.3,13.4c0.8,4.3,2.2,8.4,4.2,12.3c1.9,3.6,4.6,6.7,7.9,9c3.5,2.4,7.8,3.7,12.1,3.5
		c7.3,0,13-2.2,16.9-6.7s6.4-10.5,7.4-18h29.5c-2,16.1-7.7,28.4-17.2,36.9s-21.6,12.7-36.4,12.8c-7.9,0.1-15.7-1.5-23-4.6
		c-6.8-2.9-12.9-7.3-17.8-12.8c-5-5.7-8.9-12.4-11.4-19.6c-2.8-8-4.2-16.5-4.1-25c-0.1-8.9,1.2-17.7,3.8-26.2
		c2.3-7.6,6.1-14.7,11.1-20.9c4.9-5.9,11-10.6,17.9-13.7c7.6-3.4,15.8-5.1,24.1-4.9c6.5,0,12.9,0.9,19.1,2.8
		c5.9,1.8,11.5,4.7,16.4,8.6s8.9,8.8,11.8,14.3c3.2,6.3,4.9,13.2,5.2,20.3h-29.9C207.9,387.1,200.4,380.2,187.3,380.2z"/>
	<path class="st3" d="M271.3,392.7c2.5-7.5,6.4-14.3,11.6-20.2c5-5.6,11.2-10,18.1-12.9c7.5-3.1,15.6-4.7,23.7-4.5
		c8.2-0.1,16.3,1.4,23.8,4.6c6.9,2.9,13.2,7.3,18.2,12.9c5.2,5.9,9.2,12.7,11.6,20.2c2.8,8.5,4.2,17.4,4.1,26.4
		c0.1,8.9-1.3,17.8-4.1,26.3c-2.5,7.4-6.4,14.2-11.6,20.1c-5,5.6-11.3,9.9-18.2,12.8c-7.6,3.1-15.7,4.6-23.8,4.5
		c-8.1,0.1-16.2-1.4-23.7-4.5c-6.9-2.9-13.1-7.3-18.1-12.8c-5.2-5.8-9.2-12.7-11.6-20.1c-2.8-8.5-4.2-17.4-4.1-26.3
		C267.1,410.2,268.5,401.3,271.3,392.7z M299.1,433.4c0.8,4.4,2.3,8.6,4.4,12.4c2,3.6,4.8,6.6,8.3,8.8c3.4,2.2,7.8,3.3,12.9,3.3
		c8.9,0.4,17.2-4.3,21.4-12.1c2.2-3.9,3.6-8.1,4.4-12.4c0.9-4.7,1.3-9.4,1.3-14.2c0-4.8-0.4-9.6-1.3-14.3c-0.7-4.4-2.2-8.6-4.4-12.5
		c-2.1-3.6-4.9-6.6-8.4-8.8c-3.9-2.4-8.4-3.6-13-3.4c-5.2,0-9.5,1.1-12.9,3.4c-3.4,2.2-6.3,5.3-8.3,8.8c-2.2,3.9-3.7,8.1-4.4,12.5
		c-0.9,4.7-1.3,9.5-1.3,14.3C297.9,423.9,298.3,428.7,299.1,433.4L299.1,433.4z"/>
	<path class="st3" d="M444.4,358.3v15.5h0.4c3.7-6.6,8.5-11.3,14.2-14.3c5.9-3,12.4-4.5,19-4.5c8.8,0,16.3,1.8,22.6,5.4
		c6.3,3.5,11.6,8.4,15.7,14.3c4.3,6.3,7.5,13.3,9.3,20.8c2,8.1,3,16.4,3,24.8c0,7.9-1,15.8-3,23.5c-1.8,7.2-4.9,13.9-9.2,20
		c-4,5.7-9.2,10.4-15.3,13.8c-6.1,3.5-13.2,5.2-21.4,5.2c-6.6,0.1-13.2-1.5-19.1-4.6s-10.9-7.8-14.3-13.5h-0.5v45.4h-30.6V358.3
		H444.4z M484.1,454.6c3.4-2.2,6.2-5.1,8.2-8.6c2.2-3.8,3.7-8,4.4-12.3c0.9-4.7,1.3-9.5,1.3-14.3s-0.5-9.6-1.4-14.3
		c-0.8-4.4-2.4-8.7-4.6-12.6c-2.1-3.6-4.9-6.6-8.3-8.9c-3.7-2.4-8-3.5-12.4-3.4c-4.4-0.2-8.8,1-12.6,3.4c-3.4,2.3-6.2,5.3-8.2,8.8
		c-2.2,3.9-3.7,8.1-4.4,12.5c-0.9,4.8-1.3,9.7-1.3,14.6c0,4.8,0.5,9.6,1.4,14.3c0.8,4.3,2.3,8.5,4.5,12.4c2,3.5,4.9,6.4,8.3,8.6
		C466.8,459,476.3,459,484.1,454.6L484.1,454.6z"/>
	<path class="st3" d="M560.5,392.7c2.5-7.5,6.4-14.3,11.6-20.2c5-5.6,11.2-10,18.1-12.9c7.5-3.1,15.6-4.7,23.7-4.6
		c8.2-0.1,16.3,1.4,23.8,4.6c6.9,2.9,13.2,7.3,18.2,12.9c5.2,5.9,9.2,12.7,11.6,20.2c2.8,8.5,4.2,17.4,4.1,26.4
		c0.1,8.9-1.3,17.8-4.1,26.3c-2.5,7.4-6.4,14.2-11.6,20.1c-5,5.6-11.3,9.9-18.2,12.8c-7.6,3.1-15.7,4.6-23.8,4.5
		c-8.1,0.1-16.2-1.4-23.7-4.5c-6.9-2.9-13.1-7.3-18.1-12.8c-5.2-5.8-9.2-12.7-11.6-20.1c-2.8-8.5-4.2-17.4-4.1-26.3
		C556.3,410.2,557.7,401.2,560.5,392.7z M588.3,433.4c0.8,4.4,2.3,8.6,4.4,12.4c2,3.6,4.8,6.6,8.3,8.8c3.5,2.2,7.8,3.3,12.9,3.3
		c8.9,0.4,17.2-4.3,21.4-12.1c2.2-3.9,3.6-8.1,4.4-12.4c0.9-4.7,1.3-9.4,1.3-14.2c0-4.8-0.4-9.6-1.3-14.3c-0.7-4.4-2.2-8.6-4.4-12.5
		c-2.1-3.6-4.9-6.6-8.4-8.8c-3.9-2.4-8.4-3.6-13-3.4c-5.2,0-9.5,1.1-12.9,3.4c-3.4,2.2-6.3,5.3-8.3,8.8c-2.2,3.9-3.7,8.1-4.4,12.5
		c-0.9,4.7-1.3,9.5-1.3,14.3C587,423.9,587.4,428.7,588.3,433.4z"/>
</g>
</svg>
